# xmcd
#
# Track frame offsets: 
#        150
#        16260
#        30503
#        46569
#        57214
#        77769
#        92618
#        114484
#        129090
#        147652
#        162689
#        175069
#        189578
#        200776
#        217183
#        233926
#        260333
#        278125
#        293607
#        315023
#
# Disc length: 4511 seconds
#
# Revision: 0
# Processed by: cddbd v1.5.2PL0 Copyright (c) Steve Scherf et al.
# Submitted via: ExactAudioCopyFreeDBPlugin 1.0
#
DISCID=14119d14
DTITLE=Trash Mavericks - Wild Ones
DYEAR=2002
DGENRE=Country
TTITLE0=Lay Down Your Guns
TTITLE1=Kill Me With Your Lovin'
TTITLE2=Mumbo Gumbo
TTITLE3=Dig Your Own Grave
TTITLE4=Senorita Blue
TTITLE5=Maverick Song
TTITLE6=The Hangin' Tree
TTITLE7=Pissin' In The Wind
TTITLE8=Wanted Man
TTITLE9=I Can Tell
TTITLE10=Route 66
TTITLE11=Secret Agent Man
TTITLE12=Slow Down
TTITLE13=Babylon
TTITLE14=The First One Is Free
TTITLE15=Darkside Of Love
TTITLE16=Highway 29
TTITLE17=Tattletail
TTITLE18=Bonus 1
TTITLE19=Bonus 2
EXTD=
EXTT0=
EXTT1=
EXTT2=
EXTT3=
EXTT4=
EXTT5=
EXTT6=
EXTT7=
EXTT8=
EXTT9=
EXTT10=
EXTT11=
EXTT12=
EXTT13=
EXTT14=
EXTT15=
EXTT16=
EXTT17=
EXTT18=
EXTT19=
PLAYORDER=
